<svg width="51" height="59" viewBox="0 0 51 59" fill="none" xmlns="http://www.w3.org/2000/svg">
<path d="M6.95046 49.4545V50.392H3.91637V56H2.91069V49.4545H6.95046ZM7.28817 56V55.0625H7.52681C7.72283 55.0625 7.88619 55.0241 8.01687 54.9474C8.14755 54.8679 8.25266 54.7301 8.33221 54.5341C8.4146 54.3352 8.4771 54.0597 8.51971 53.7074C8.56516 53.3523 8.59783 52.9006 8.61772 52.3523L8.73704 49.4545H13.1007V56H12.095V50.392H9.69158L9.58931 52.7273C9.56658 53.2642 9.51829 53.7372 9.44442 54.1463C9.3734 54.5526 9.26403 54.8935 9.1163 55.169C8.97141 55.4446 8.77823 55.652 8.53675 55.7912C8.29528 55.9304 7.99272 56 7.62908 56H7.28817ZM16.872 56.1534C16.4572 56.1534 16.0808 56.0753 15.7427 55.919C15.4047 55.7599 15.1362 55.5312 14.9373 55.233C14.7385 54.9318 14.639 54.5682 14.639 54.142C14.639 53.767 14.7129 53.4631 14.8606 53.2301C15.0083 52.9943 15.2058 52.8097 15.4529 52.6761C15.7001 52.5426 15.9728 52.4432 16.2711 52.3778C16.5723 52.3097 16.8748 52.2557 17.1788 52.2159C17.5765 52.1648 17.899 52.1264 18.1461 52.1009C18.3961 52.0724 18.5779 52.0256 18.6916 51.9602C18.8081 51.8949 18.8663 51.7812 18.8663 51.6193V51.5852C18.8663 51.1648 18.7512 50.8381 18.5211 50.6051C18.2939 50.3722 17.9487 50.2557 17.4856 50.2557C17.0055 50.2557 16.6291 50.3608 16.3564 50.571C16.0836 50.7812 15.8919 51.0057 15.7811 51.2443L14.8265 50.9034C14.997 50.5057 15.2243 50.196 15.5083 49.9744C15.7953 49.75 16.1078 49.5937 16.4458 49.5057C16.7868 49.4148 17.122 49.3693 17.4515 49.3693C17.6618 49.3693 17.9032 49.3949 18.176 49.446C18.4515 49.4943 18.7172 49.5952 18.9728 49.7486C19.2314 49.902 19.4458 50.1335 19.6163 50.4432C19.7868 50.7528 19.872 51.1676 19.872 51.6875V56H18.8663V55.1136H18.8152C18.747 55.2557 18.6333 55.4077 18.4743 55.5696C18.3152 55.7315 18.1035 55.8693 17.8393 55.983C17.5751 56.0966 17.2527 56.1534 16.872 56.1534ZM17.0254 55.25C17.4231 55.25 17.7583 55.1719 18.0311 55.0156C18.3066 54.8594 18.514 54.6577 18.6532 54.4105C18.7953 54.1634 18.8663 53.9034 18.8663 53.6307V52.7102C18.8237 52.7614 18.7299 52.8082 18.585 52.8509C18.443 52.8906 18.2782 52.9261 18.0907 52.9574C17.9061 52.9858 17.7257 53.0114 17.5495 53.0341C17.3762 53.054 17.2356 53.071 17.1277 53.0852C16.8663 53.1193 16.622 53.1747 16.3947 53.2514C16.1703 53.3253 15.9885 53.4375 15.8493 53.5881C15.7129 53.7358 15.6447 53.9375 15.6447 54.1932C15.6447 54.5426 15.774 54.8068 16.0325 54.9858C16.2939 55.1619 16.6248 55.25 17.0254 55.25ZM21.7076 56V49.4545H24.3837C25.0882 49.4545 25.6479 49.6136 26.0627 49.9318C26.4775 50.25 26.6848 50.6705 26.6848 51.1932C26.6848 51.5909 26.5669 51.8991 26.3311 52.1179C26.0953 52.3338 25.7928 52.4801 25.4235 52.5568C25.665 52.5909 25.8993 52.6761 26.1266 52.8125C26.3567 52.9489 26.5471 53.1364 26.6976 53.375C26.8482 53.6108 26.9235 53.9006 26.9235 54.2443C26.9235 54.5795 26.8382 54.8793 26.6678 55.1435C26.4973 55.4077 26.253 55.6165 25.9348 55.7699C25.6167 55.9233 25.236 56 24.7928 56H21.7076ZM22.6621 55.0795H24.7928C25.1394 55.0795 25.4107 54.9972 25.6067 54.8324C25.8027 54.6676 25.9007 54.4432 25.9007 54.1591C25.9007 53.821 25.8027 53.5554 25.6067 53.3622C25.4107 53.1662 25.1394 53.0682 24.7928 53.0682H22.6621V55.0795ZM22.6621 52.1989H24.3837C24.6536 52.1989 24.8851 52.1619 25.0783 52.0881C25.2715 52.0114 25.4192 51.9034 25.5215 51.7642C25.6266 51.6222 25.6792 51.4545 25.6792 51.2614C25.6792 50.9858 25.5641 50.7699 25.334 50.6136C25.1039 50.4545 24.7871 50.375 24.3837 50.375H22.6621V52.1989ZM32.8265 52.267V53.2045H29.2129V52.267H32.8265ZM29.4515 49.4545V56H28.4458V49.4545H29.4515ZM33.5936 49.4545V56H32.5879V49.4545H33.5936ZM37.3564 56.1534C36.9416 56.1534 36.5652 56.0753 36.2271 55.919C35.889 55.7599 35.6206 55.5312 35.4217 55.233C35.2228 54.9318 35.1234 54.5682 35.1234 54.142C35.1234 53.767 35.1973 53.4631 35.345 53.2301C35.4927 52.9943 35.6902 52.8097 35.9373 52.6761C36.1845 52.5426 36.4572 52.4432 36.7555 52.3778C37.0566 52.3097 37.3592 52.2557 37.6632 52.2159C38.0609 52.1648 38.3833 52.1264 38.6305 52.1009C38.8805 52.0724 39.0623 52.0256 39.176 51.9602C39.2924 51.8949 39.3507 51.7812 39.3507 51.6193V51.5852C39.3507 51.1648 39.2356 50.8381 39.0055 50.6051C38.7782 50.3722 38.4331 50.2557 37.97 50.2557C37.4899 50.2557 37.1135 50.3608 36.8407 50.571C36.568 50.7812 36.3762 51.0057 36.2654 51.2443L35.3109 50.9034C35.4814 50.5057 35.7086 50.196 35.9927 49.9744C36.2797 49.75 36.5922 49.5937 36.9302 49.5057C37.2711 49.4148 37.6064 49.3693 37.9359 49.3693C38.1461 49.3693 38.3876 49.3949 38.6603 49.446C38.9359 49.4943 39.2015 49.5952 39.4572 49.7486C39.7157 49.902 39.9302 50.1335 40.1007 50.4432C40.2711 50.7528 40.3564 51.1676 40.3564 51.6875V56H39.3507V55.1136H39.2995C39.2314 55.2557 39.1177 55.4077 38.9586 55.5696C38.7995 55.7315 38.5879 55.8693 38.3237 55.983C38.0595 56.0966 37.737 56.1534 37.3564 56.1534ZM37.5098 55.25C37.9075 55.25 38.2427 55.1719 38.5154 55.0156C38.791 54.8594 38.9984 54.6577 39.1376 54.4105C39.2797 54.1634 39.3507 53.9034 39.3507 53.6307V52.7102C39.3081 52.7614 39.2143 52.8082 39.0694 52.8509C38.9274 52.8906 38.7626 52.9261 38.5751 52.9574C38.3904 52.9858 38.21 53.0114 38.0339 53.0341C37.8606 53.054 37.72 53.071 37.612 53.0852C37.3507 53.1193 37.1064 53.1747 36.8791 53.2514C36.6547 53.3253 36.4728 53.4375 36.3336 53.5881C36.1973 53.7358 36.1291 53.9375 36.1291 54.1932C36.1291 54.5426 36.2583 54.8068 36.5169 54.9858C36.7782 55.1619 37.1092 55.25 37.5098 55.25ZM46.1294 56V50.375H44.3908C43.9988 50.375 43.6905 50.4659 43.4661 50.6477C43.2417 50.8295 43.1294 51.0795 43.1294 51.3977C43.1294 51.7102 43.2303 51.956 43.432 52.1349C43.6365 52.3139 43.9164 52.4034 44.2715 52.4034H46.3851V53.3409H44.2715C43.8283 53.3409 43.4462 53.2628 43.1252 53.1065C42.8042 52.9503 42.557 52.7273 42.3837 52.4375C42.2104 52.1449 42.1238 51.7983 42.1238 51.3977C42.1238 50.9943 42.2147 50.6477 42.3965 50.358C42.5783 50.0682 42.8382 49.8452 43.1763 49.6889C43.5172 49.5327 43.9221 49.4545 44.3908 49.4545H47.084V56H46.1294ZM41.7658 56L43.6238 52.7443H44.7147L42.8567 56H41.7658Z" fill="white"/>
<path fill-rule="evenodd" clip-rule="evenodd" d="M44.625 20.3006V35.9337C44.625 40.3886 40.8194 44 36.125 44H14.875C10.1806 44 6.375 40.3886 6.375 35.9337V20.3006C6.375 17.8787 7.52175 15.585 9.49846 14.053L20.1234 5.81868C23.2524 3.39376 27.7476 3.39375 30.8765 5.81868L41.5015 14.053C43.4782 15.585 44.625 17.8787 44.625 20.3006ZM21.25 34.5C20.3698 34.5 19.6563 35.1716 19.6563 36C19.6563 36.8284 20.3698 37.5 21.25 37.5H29.75C30.6302 37.5 31.3437 36.8284 31.3437 36C31.3437 35.1716 30.6302 34.5 29.75 34.5H21.25Z" fill="white"/>
</svg>
