<svg width="50" height="58" viewBox="0 0 50 58" fill="none" xmlns="http://www.w3.org/2000/svg">
<path d="M9.69389 55V48.4545H14.8416V55H13.8359V49.392H10.6996V55H9.69389ZM19.3374 55.1364C18.7464 55.1364 18.228 54.9957 17.782 54.7145C17.3388 54.4332 16.9922 54.0398 16.7422 53.5341C16.495 53.0284 16.3714 52.4375 16.3714 51.7614C16.3714 51.0795 16.495 50.4844 16.7422 49.9759C16.9922 49.4673 17.3388 49.0724 17.782 48.7912C18.228 48.5099 18.7464 48.3693 19.3374 48.3693C19.9283 48.3693 20.4453 48.5099 20.8885 48.7912C21.3345 49.0724 21.6811 49.4673 21.9283 49.9759C22.1783 50.4844 22.3033 51.0795 22.3033 51.7614C22.3033 52.4375 22.1783 53.0284 21.9283 53.5341C21.6811 54.0398 21.3345 54.4332 20.8885 54.7145C20.4453 54.9957 19.9283 55.1364 19.3374 55.1364ZM19.3374 54.233C19.7862 54.233 20.1555 54.1179 20.4453 53.8878C20.7351 53.6577 20.9496 53.3551 21.0888 52.9801C21.228 52.6051 21.2976 52.1989 21.2976 51.7614C21.2976 51.3239 21.228 50.9162 21.0888 50.5384C20.9496 50.1605 20.7351 49.8551 20.4453 49.6222C20.1555 49.3892 19.7862 49.2727 19.3374 49.2727C18.8885 49.2727 18.5192 49.3892 18.2294 49.6222C17.9396 49.8551 17.7251 50.1605 17.5859 50.5384C17.4467 50.9162 17.3771 51.3239 17.3771 51.7614C17.3771 52.1989 17.4467 52.6051 17.5859 52.9801C17.7251 53.3551 17.9396 53.6577 18.2294 53.8878C18.5192 54.1179 18.8885 54.233 19.3374 54.233ZM24.8441 53.517L27.9975 48.4545H29.1566V55H28.1509V49.9375L25.0146 55H23.8384V48.4545H24.8441V53.517ZM33.6577 55.1364C33.044 55.1364 32.5156 54.9915 32.0724 54.7017C31.6293 54.4119 31.2884 54.0128 31.0497 53.5043C30.8111 52.9957 30.6918 52.4148 30.6918 51.7614C30.6918 51.0966 30.8139 50.5099 31.0582 50.0014C31.3054 49.4901 31.6491 49.0909 32.0895 48.804C32.5327 48.5142 33.0497 48.3693 33.6406 48.3693C34.1009 48.3693 34.5156 48.4545 34.8849 48.625C35.2543 48.7955 35.5568 49.0341 35.7926 49.3409C36.0284 49.6477 36.1747 50.0057 36.2315 50.4148H35.2259C35.1491 50.1165 34.9787 49.8523 34.7145 49.6222C34.4531 49.3892 34.1009 49.2727 33.6577 49.2727C33.2656 49.2727 32.9219 49.375 32.6264 49.5795C32.3338 49.7812 32.1051 50.0668 31.9403 50.4361C31.7784 50.8026 31.6974 51.233 31.6974 51.7273C31.6974 52.233 31.777 52.6733 31.9361 53.0483C32.098 53.4233 32.3253 53.7145 32.6179 53.9219C32.9134 54.1293 33.2599 54.233 33.6577 54.233C33.919 54.233 34.1562 54.1875 34.3693 54.0966C34.5824 54.0057 34.7628 53.875 34.9105 53.7045C35.0582 53.5341 35.1634 53.3295 35.2259 53.0909H36.2315C36.1747 53.4773 36.0341 53.8253 35.8097 54.1349C35.5881 54.4418 35.294 54.6861 34.9276 54.8679C34.5639 55.0469 34.1406 55.1364 33.6577 55.1364ZM37.7017 55V48.4545H38.7074V51.3011H39.3722L41.7244 48.4545H43.0199L40.3778 51.608L43.054 55H41.7585L39.6108 52.2386H38.7074V55H37.7017Z" fill="white"/>
<rect x="6" y="3" width="41" height="41" rx="20.5" fill="white"/>
<path opacity="0.4" fill-rule="evenodd" clip-rule="evenodd" d="M31.6161 28.2828C32.1043 27.7946 32.8957 27.7946 33.3839 28.2828L37.5505 32.4494C38.0387 32.9376 38.0387 33.7291 37.5505 34.2172C37.0624 34.7054 36.2709 34.7054 35.7828 34.2172L31.6161 30.0505C31.1279 29.5624 31.1279 28.7709 31.6161 28.2828Z" fill="black"/>
<ellipse cx="26.6667" cy="23.3333" rx="10" ry="10" fill="#A069D6"/>
</svg>
